<svg width="24" height="24" viewBox="0 0 24 24" fill="none" xmlns="http://www.w3.org/2000/svg">
<path d="M12.3732 14.6671C12.168 14.8339 11.8321 14.8339 11.6268 14.6671L8.69676 12.2844C8.49156 12.1175 8.49003 11.8423 8.69356 11.673L11.6302 9.23018C11.8336 9.06084 12.1666 9.06084 12.3701 9.23018L15.3067 11.673C15.5101 11.8422 15.5087 12.1174 15.3034 12.2844L12.3732 14.6671ZM23.7693 8.87376C23.973 8.70477 24.058 8.41967 23.9581 8.24041C23.8583 8.06114 23.5797 7.99727 23.3391 8.09853L19.3831 9.76334C19.1424 9.86473 18.916 9.72588 18.8799 9.45501L18.2847 4.9926C18.2485 4.72173 18.0556 4.5 17.8558 4.5C17.6561 4.5 17.4631 4.72173 17.427 4.9926L16.8319 9.45501C16.7957 9.72588 16.5693 9.86473 16.3287 9.76334L12.4375 8.12578C12.197 8.02459 11.8031 8.02459 11.5624 8.12578L7.67123 9.76334C7.43063 9.86473 7.20409 9.72588 7.16796 9.45501L6.5729 4.9926C6.53676 4.72173 6.34383 4.5 6.1441 4.5C5.94436 4.5 5.75136 4.72173 5.71523 4.9926L5.12017 9.45501C5.08403 9.72588 4.85757 9.86473 4.61697 9.76334L0.660974 8.09853C0.420308 7.99727 0.141642 8.06114 0.0418419 8.24041C-0.0579579 8.41967 0.0269753 8.7047 0.230642 8.87376L3.55817 11.6351C3.76183 11.8042 3.76183 12.0808 3.55817 12.2499L0.230708 15.011C0.027042 15.1801 -0.0578912 15.4824 0.0419085 15.6828C0.141708 15.8833 0.420175 15.9639 0.660574 15.8619L4.5811 14.1993C4.8215 14.0973 5.0461 14.2359 5.08023 14.507L5.6463 19.0069C5.68043 19.2781 5.9045 19.5 6.14416 19.5C6.3839 19.5 6.6079 19.2781 6.64203 19.0069L7.20823 14.507C7.24229 14.2358 7.46696 14.0973 7.70729 14.1993L11.5628 15.8344C11.8033 15.9363 12.1967 15.9363 12.4371 15.8344L16.2927 14.1993C16.5331 14.0973 16.7577 14.2359 16.7918 14.507L17.358 19.0069C17.3921 19.2781 17.6161 19.5 17.8558 19.5C18.0955 19.5 18.3195 19.2781 18.3537 19.0069L18.9197 14.507C18.9539 14.2358 19.1785 14.0973 19.4189 14.1993L23.3394 15.8619C23.5799 15.9639 23.8582 15.8833 23.9581 15.6828C24.0579 15.4824 23.9729 15.1801 23.7693 15.011L20.4419 12.2498C20.2382 12.0807 20.2382 11.8041 20.4419 11.635L23.7693 8.87376Z" fill="#FF69B4"/>
</svg>
