<svg width="20" height="22" viewBox="0 0 20 22" fill="none" xmlns="http://www.w3.org/2000/svg">
<g clip-path="url(#clip0_135_86)">
<path fill-rule="evenodd" clip-rule="evenodd" d="M8.9855 0.133309C7.81444 0.452201 7.00454 1.11575 6.48247 2.18391C6.22739 2.7059 6.11695 3.07799 6.08043 3.53874L6.02996 4.17388L5.55283 3.9316C3.66604 2.97316 1.23994 3.83882 0.284723 5.81115C0.0247038 6.34802 0 6.48812 0 7.42765C0 8.33945 0.0295477 8.52021 0.260407 9.01819C0.628542 9.81253 0.956376 10.2115 1.59616 10.6435L2.15311 11.0196L1.74041 11.2836C1.15478 11.6583 0.557918 12.3471 0.257695 12.9948C0.0299352 13.4862 0 13.6703 0 14.5794C0 15.5074 0.0265445 15.6628 0.270773 16.1658C1.24972 18.1817 3.64638 19.0477 5.57502 18.0825L6.03073 17.8545L6.08895 18.4851C6.25016 20.2314 7.5674 21.6386 9.32651 21.9435C11.5388 22.3272 13.6624 20.71 13.8678 18.4851L13.9261 17.8545L14.3742 18.0779C16.4722 19.1239 19.0383 18.041 19.8244 15.7779C20.1022 14.9779 20.0448 13.7671 19.692 12.9906C19.3996 12.3468 18.6892 11.5349 18.1508 11.2289L17.7809 11.0186L18.2405 10.7056C18.8692 10.2775 19.3968 9.664 19.7015 9.00692C19.9242 8.52648 19.9568 8.33083 19.9568 7.47154C19.9568 6.53005 19.9407 6.45393 19.5914 5.73894C19.0064 4.54214 18.0504 3.83 16.7078 3.59086C15.961 3.45782 15.0805 3.58792 14.4045 3.9313L13.928 4.17329L13.8688 3.53237C13.6494 1.15602 11.2818 -0.491934 8.9855 0.133309ZM10.7245 7.14589C12.8059 7.59253 14.2283 9.72553 13.8085 11.7706C13.3612 13.9497 11.0863 15.3978 8.99509 14.8347C7.4528 14.4194 6.32204 13.1844 6.05282 11.6211C5.59333 8.95225 8.07281 6.57698 10.7245 7.14589Z" fill="#FF69B4"/>
</g>
<defs>
<clipPath id="clip0_135_86">
<rect width="20" height="22" fill="white"/>
</clipPath>
</defs>
</svg>
