<svg width="24" height="24" viewBox="0 0 24 24" fill="none" xmlns="http://www.w3.org/2000/svg">
<g clip-path="url(#clip0_520_22)">
<path d="M12 2.67534C15.0371 2.67534 15.3973 2.68672 16.5974 2.7417C19.68 2.88199 21.1199 4.34463 21.2602 7.4045C21.3152 8.60361 21.3256 8.96382 21.3256 12.0009C21.3256 15.039 21.3142 15.3983 21.2602 16.5974C21.119 19.6544 19.6829 21.1199 16.5974 21.2602C15.3973 21.3152 15.039 21.3266 12 21.3266C8.96288 21.3266 8.60267 21.3152 7.40355 21.2602C4.31334 21.119 2.88104 19.6497 2.74075 16.5964C2.68577 15.3973 2.6744 15.0381 2.6744 12C2.6744 8.96288 2.68672 8.60361 2.74075 7.40355C2.88199 4.34463 4.31808 2.88104 7.40355 2.74075C8.60361 2.68672 8.96288 2.67534 12 2.67534V2.67534ZM12 0.625C8.91074 0.625 8.52399 0.638271 7.31066 0.69325C3.17964 0.882833 0.883781 3.1749 0.694198 7.30971C0.638271 8.52399 0.625 8.91074 0.625 12C0.625 15.0893 0.638271 15.477 0.69325 16.6903C0.882833 20.8213 3.1749 23.1172 7.30971 23.3067C8.52399 23.3617 8.91074 23.375 12 23.375C15.0893 23.375 15.477 23.3617 16.6903 23.3067C20.8175 23.1172 23.1191 20.8251 23.3058 16.6903C23.3617 15.477 23.375 15.0893 23.375 12C23.375 8.91074 23.3617 8.52399 23.3067 7.31066C23.121 3.18343 20.8261 0.883781 16.6912 0.694198C15.477 0.638271 15.0893 0.625 12 0.625V0.625ZM12 6.15894C8.77424 6.15894 6.15894 8.77424 6.15894 12C6.15894 15.2258 8.77424 17.842 12 17.842C15.2258 17.842 17.8411 15.2267 17.8411 12C17.8411 8.77424 15.2258 6.15894 12 6.15894ZM12 15.7917C9.90605 15.7917 8.20833 14.0949 8.20833 12C8.20833 9.90605 9.90605 8.20833 12 8.20833C14.0939 8.20833 15.7917 9.90605 15.7917 12C15.7917 14.0949 14.0939 15.7917 12 15.7917ZM18.0724 4.56359C17.3178 4.56359 16.7064 5.175 16.7064 5.92859C16.7064 6.68219 17.3178 7.29359 18.0724 7.29359C18.8259 7.29359 19.4364 6.68219 19.4364 5.92859C19.4364 5.175 18.8259 4.56359 18.0724 4.56359Z" fill="#203FB5"/>
</g>
<defs>
<clipPath id="clip0_520_22">
<rect width="24" height="24" fill="white"/>
</clipPath>
</defs>
</svg>
